<svg xmlns="http://www.w3.org/2000/svg" data-name="Layer 3" viewBox="0 0 24 30" x="0px" y="0px"><path fill="yellow" d="M17,12a5,5,0,1,1-5-5A5.00588,5.00588,0,0,1,17,12ZM13,5V3a1,1,0,0,0-2,0V5a1,1,0,0,0,2,0Zm0,16V19a1,1,0,0,0-2,0v2a1,1,0,0,0,2,0ZM6,12a.99943.99943,0,0,0-1-1H3a1,1,0,0,0,0,2H5A.99943.99943,0,0,0,6,12Zm16,0a.99943.99943,0,0,0-1-1H19a1,1,0,0,0,0,2h2A.99943.99943,0,0,0,22,12ZM7.75684,7.75684a.99965.99965,0,0,0,0-1.41407L6.34277,4.92871A.99989.99989,0,0,0,4.92871,6.34277L6.34277,7.75684a.99967.99967,0,0,0,1.41407,0ZM19.07129,19.07129a.99964.99964,0,0,0,0-1.41406l-1.41406-1.41407a.9999.9999,0,0,0-1.41407,1.41407l1.41407,1.41406a.99963.99963,0,0,0,1.41406,0Zm-12.72852,0,1.41407-1.41406a.9999.9999,0,0,0-1.41407-1.41407L4.92871,17.65723a.99989.99989,0,1,0,1.41406,1.41406ZM17.65723,7.75684l1.41406-1.41407a.99989.99989,0,1,0-1.41406-1.41406L16.24316,6.34277a.9999.9999,0,1,0,1.41407,1.41407Z"/></svg>